<?xml version="1.0" encoding="utf-8"?>
<svg viewBox="-0.336 -1.483 260.025 110.001" preserveAspectRatio="xMinYMin" xmlns="http://www.w3.org/2000/svg" xmlns:bx="https://boxy-svg.com">
  <defs>
    <bx:grid x="8.524" y="2.583" width="75.457" height="21.309"/>
  </defs>
  <g>
    <title>name</title>
    <path d="M 29.776 39.233 C 20.409 46.576 11.779 66.775 5.144 66.775 C -2.382 66.775 3.9 38.063 10.263 28.48 C 20.099 13.665 29.907 5.108 35.584 5.534 C 38.317 5.739 24.345 61.963 21.561 73.098 C 19.884 79.806 12.378 106.982 8.878 105.781 C 4.634 104.325 7.726 86.628 11.597 77.338 C 14.115 71.295 20.576 57.987 30.128 48.141 C 36.416 41.659 48.295 37.208 48.306 37.25 C 48.314 37.281 39.028 43.871 35.465 48.864 C 29.664 56.994 28.211 66.783 33.956 66.783 C 37.334 66.783 54.811 44.12 50.024 37.551 C 48.89 35.995 46.317 44.97 45.817 51.076 C 45.259 57.886 45.207 66.784 47.243 66.784 C 49.755 66.784 55.969 57.279 57.594 48.113 C 58.381 43.675 58.571 42.074 58.781 38.664 C 58.943 36.043 56.635 37.558 56.925 38.937 C 57.286 40.655 68.949 46.978 65.554 55.653 C 63.718 60.343 55.765 68.448 54.185 66.547 C 52.076 64.01 74.511 48.108 74.397 48.281 C 71.964 51.965 71.178 54.516 71.078 58.847 C 70.996 62.394 72.915 66.789 77.619 66.789 C 83.685 66.789 86.634 59.346 84.415 53.798 C 83.269 50.934 78.072 38.367 75.867 41.49 C 74.325 43.674 78.745 48.656 83.848 49.144 C 90.81 49.81 97.71 38.859 95.244 38.701 C 91.87 38.484 89.317 66.437 91.288 66.437 C 92.366 66.437 98.281 38.736 103.869 36.544 C 104.917 36.133 98.599 76.354 119.151 63.764" style="stroke: rgb(0, 0, 0); fill: none; vector-effect: non-scaling-stroke;">
      <title>last</title>
    </path>
    <path d="M 155.923 27.404 C 161.349 17.397 164.268 0.87 159.635 0.91 C 151.734 0.978 140.502 27.747 136.698 37.486 C 133.143 46.588 130.487 66.775 136.468 66.775 C 139.76 66.775 152.463 58.49 158.289 39.485 C 161.634 28.572 165.093 4.871 162.231 4.688 C 155.796 4.276 156.071 66.775 158.923 66.775 C 159.65 66.775 160.735 64.437 163.237 56.381 C 166.261 46.643 179.181 5.454 177.028 5.852 C 175.643 6.108 173.018 21.326 172.516 25.764 C 171.28 36.681 167.542 66.775 172.266 66.775 C 179.529 66.775 180.643 47.976 177.76 47.049 C 170.826 44.82 179.983 63.937 191.771 18.017 C 192.288 16.004 195.188 5.801 194.608 4.449 C 192.403 -0.689 180.136 66.677 188.083 66.677 C 196.763 66.677 196.97 42.724 192.179 46.705 C 187.409 50.669 196.384 56.642 205.489 49.358 C 208.547 46.912 189.961 60.652 203.563 65.516 C 222.64 72.338 216.109 34.439 209.866 39.656 C 205.838 43.021 218.182 54.563 226.873 33.869 C 236.141 11.801 211.418 65.63 227.626 65.63 C 234.497 65.63 239.39 29.579 239.39 29.579 C 239.39 29.579 229.45 71.943 251.833 64.39 C 257.493 62.48 259.824 53.903 252.727 48.725 C 247.237 44.719 233.751 44.604 222.079 38.294 C 209.071 31.261 203.764 16.117 203.997 16.423" style="stroke: rgb(0, 0, 0); fill: none; vector-effect: non-scaling-stroke;">
      <title>last</title>
    </path>
  </g>
</svg>