<?xml version="1.0" encoding="utf-8"?>
<svg viewBox="0 0 500 200" xmlns="http://www.w3.org/2000/svg" xmlns:bx="https://boxy-svg.com">
  <defs>
    <bx:grid x="0" y="0" width="77.245" height="21.955"/>
  </defs>
  <path d="M 105.776 82.233 C 96.409 89.576 87.779 109.775 81.144 109.775 C 73.618 109.775 79.9 81.063 86.263 71.48 C 96.099 56.665 105.907 48.108 111.584 48.534 C 114.317 48.739 100.345 104.963 97.561 116.098 C 95.884 122.806 88.378 149.982 84.878 148.781 C 80.634 147.325 83.726 129.628 87.597 120.338 C 90.115 114.295 97.034 97.737 106.513 87.82 C 110.164 84.001 119.598 80.209 119.629 80.24 C 119.857 80.468 112.5 85.322 108.937 90.315 C 103.136 98.445 101.811 109.775 107.556 109.775 C 110.934 109.775 123.288 84.176 120.074 80.277 C 119.37 79.423 118.149 88.01 117.14 94.066 C 116.857 95.763 114.336 109.775 116.372 109.775 C 118.07 109.775 123.38 92.077 124.702 87.107 C 125.737 83.218 126.271 82.677 126.058 81.044 C 125.718 78.44 123.912 79.938 124.202 81.317 C 124.563 83.035 136.226 89.358 132.831 98.033 C 130.995 102.723 122.036 111.252 120.969 109.775 C 119.929 108.336 131.061 97.663 135.167 92.938 C 137.182 90.62 140.245 88.804 140.306 89.002 C 140.409 89.334 136.816 95.237 136.716 99.568 C 136.634 103.115 138.915 109.775 143.619 109.775 C 149.685 109.775 152.634 102.332 150.415 96.784 C 149.269 93.92 144.072 81.353 141.867 84.476 C 140.325 86.66 149.533 90.281 150.827 90.409 C 157.787 91.095 159.428 82.257 158.446 82.039 C 156.215 81.545 152.519 109.775 154.49 109.775 C 155.568 109.775 161.483 82.074 167.071 79.882 C 168.119 79.471 161.801 119.692 182.353 107.102" style="stroke: rgb(0, 0, 0); fill: none; vector-effect: non-scaling-stroke;"/>
</svg>