<?xml version="1.0" encoding="utf-8"?>
<svg viewBox="0 0 239.893 107.271" preserveAspectRatio="xMinYMin" xmlns="http://www.w3.org/2000/svg" xmlns:bx="https://boxy-svg.com">
  <defs>
    <bx:grid x="8.524" y="2.583" width="77.245" height="21.955"/>
  </defs>
  <g>
    <title>name</title>
    <path d="M 28.776 39.233 C 19.409 46.576 10.779 66.775 4.144 66.775 C -3.382 66.775 2.9 38.063 9.263 28.48 C 19.099 13.665 28.907 5.108 34.584 5.534 C 37.317 5.739 23.345 61.963 20.561 73.098 C 18.884 79.806 11.378 106.982 7.878 105.781 C 3.634 104.325 6.726 86.628 10.597 77.338 C 13.115 71.295 20.034 54.737 29.513 44.82 C 33.164 41.001 42.598 37.209 42.629 37.24 C 42.857 37.468 35.5 42.322 31.937 47.315 C 26.136 55.445 24.811 66.775 30.556 66.775 C 33.934 66.775 46.288 41.176 43.074 37.277 C 42.37 36.423 41.149 45.01 40.14 51.066 C 39.857 52.763 37.336 66.775 39.372 66.775 C 41.07 66.775 46.246 56.659 47.871 47.493 C 48.658 43.055 48.848 41.454 49.058 38.044 C 49.22 35.423 46.912 36.938 47.202 38.317 C 47.563 40.035 59.226 46.358 55.831 55.033 C 53.995 59.723 45.036 68.252 43.969 66.775 C 42.929 65.336 63.511 48.094 63.397 48.267 C 60.964 51.951 60.178 54.502 60.078 58.833 C 59.996 62.38 61.915 66.775 66.619 66.775 C 72.685 66.775 75.634 59.332 73.415 53.784 C 72.269 50.92 67.072 38.353 64.867 41.476 C 63.325 43.66 72.352 49.002 73.646 49.13 C 80.606 49.816 82.428 39.257 81.446 39.039 C 79.215 38.545 75.519 66.775 77.49 66.775 C 78.568 66.775 84.483 39.074 90.071 36.882 C 91.119 36.471 84.801 76.692 105.353 64.102" style="stroke: rgb(0, 0, 0); fill: none; vector-effect: non-scaling-stroke;">
      <title>last</title>
    </path>
    <path d="M 143.111 25.514 C 148.537 15.507 150.268 0.87 145.635 0.91 C 137.734 0.978 126.502 27.747 122.698 37.486 C 119.143 46.588 116.487 66.775 122.468 66.775 C 125.76 66.775 138.463 58.49 144.289 39.485 C 147.634 28.572 151.099 4.686 148.231 4.688 C 144.923 4.69 142.071 66.775 144.923 66.775 C 145.65 66.775 146.735 64.437 149.237 56.381 C 152.261 46.643 165.181 5.454 163.028 5.852 C 161.643 6.108 159.018 21.326 158.516 25.764 C 157.28 36.681 153.542 66.775 158.266 66.775 C 165.529 66.775 166.643 47.976 163.76 47.049 C 156.826 44.82 164.656 64.035 176.444 18.115 C 176.961 16.102 179.626 7.072 179.046 5.72 C 176.841 0.582 164.809 66.775 172.756 66.775 C 181.436 66.775 181.643 42.822 176.852 46.803 C 172.082 50.767 180.828 56.546 189.933 49.262 C 192.991 46.816 174.405 60.556 188.007 65.42 C 207.084 72.242 200.553 34.343 194.31 39.56 C 190.282 42.925 199.855 55.615 208.546 34.921 C 217.814 12.853 193.091 66.682 209.299 66.682 C 216.17 66.682 221.063 30.631 221.063 30.631 C 221.063 30.631 211.123 72.995 233.506 65.442 C 239.166 63.532 241.497 54.955 234.4 49.777 C 228.91 45.771 216.217 43.915 207.975 41.174 C 195.129 36.902 195.835 20.559 196.068 20.865" style="stroke: rgb(0, 0, 0); fill: none; vector-effect: non-scaling-stroke;">
      <title>last</title>
    </path>
  </g>
</svg>